<svg width="18" height="17" viewBox="0 0 18 17" fill="none" xmlns="http://www.w3.org/2000/svg">
<path fill-rule="evenodd" clip-rule="evenodd" d="M0.584961 8.4375C0.584961 3.84707 4.30703 0.125 8.89746 0.125C13.4879 0.125 17.21 3.84707 17.21 8.4375C17.21 13.0279 13.4879 16.75 8.89746 16.75C4.30703 16.75 0.584961 13.0279 0.584961 8.4375ZM1.99512 8.4375C1.99512 12.2486 5.08633 15.3398 8.89746 15.3398C12.7086 15.3398 15.7998 12.2486 15.7998 8.4375C15.7998 4.62637 12.7086 1.53516 8.89746 1.53516C5.08633 1.53516 1.99512 4.62637 1.99512 8.4375ZM9.49121 7.84375H12.3115C12.3932 7.84375 12.46 7.91055 12.46 7.99219V8.88281C12.46 8.96445 12.3932 9.03125 12.3115 9.03125H9.49121V11.8516C9.49121 11.9332 9.42441 12 9.34277 12H8.45215C8.37051 12 8.30371 11.9332 8.30371 11.8516V9.03125H5.4834C5.40176 9.03125 5.33496 8.96445 5.33496 8.88281V7.99219C5.33496 7.91055 5.40176 7.84375 5.4834 7.84375H8.30371V5.02344C8.30371 4.9418 8.37051 4.875 8.45215 4.875H9.34277C9.42441 4.875 9.49121 4.9418 9.49121 5.02344V7.84375Z" fill="#632CAF"/>
</svg>
