<svg width="18" height="20" viewBox="0 0 18 20" fill="none" xmlns="http://www.w3.org/2000/svg">
<path d="M15.5742 1.92017C13.2744 -0.379639 9.52932 -0.379639 7.23196 1.92017L0.859886 8.28735C0.818382 8.32886 0.796409 8.38501 0.796409 8.4436C0.796409 8.5022 0.818382 8.55835 0.859886 8.59986L1.76076 9.50073C1.80194 9.54173 1.85769 9.56475 1.91579 9.56475C1.9739 9.56475 2.02964 9.54173 2.07082 9.50073L8.44289 3.13355C9.23391 2.34253 10.2862 1.90796 11.4043 1.90796C12.5225 1.90796 13.5747 2.34253 14.3633 3.13355C15.1543 3.92456 15.5889 4.97681 15.5889 6.09253C15.5889 7.21069 15.1543 8.2605 14.3633 9.05152L7.86916 15.5432L6.81692 16.5955C5.83303 17.5793 4.23391 17.5793 3.25002 16.5955C2.77395 16.1194 2.51272 15.4871 2.51272 14.8132C2.51272 14.1394 2.77395 13.5071 3.25002 13.031L9.69289 6.59058C9.85647 6.42944 10.0713 6.33911 10.3008 6.33911H10.3032C10.5327 6.33911 10.7451 6.42944 10.9063 6.59058C11.0698 6.75415 11.1577 6.969 11.1577 7.19849C11.1577 7.42554 11.0674 7.64038 10.9063 7.80152L5.64016 13.0627C5.59865 13.1043 5.57668 13.1604 5.57668 13.219C5.57668 13.2776 5.59865 13.3337 5.64016 13.3752L6.54104 14.2761C6.58222 14.3171 6.63796 14.3401 6.69607 14.3401C6.75417 14.3401 6.80992 14.3171 6.8511 14.2761L12.1148 9.01245C12.6006 8.52661 12.8667 7.88208 12.8667 7.19605C12.8667 6.51001 12.5982 5.86304 12.1148 5.37964C11.1113 4.37622 9.48049 4.37866 8.47707 5.37964L7.85207 6.00708L2.03664 11.8201C1.64194 12.2125 1.32907 12.6793 1.11617 13.1935C0.903275 13.7077 0.794586 14.2591 0.796409 14.8157C0.796409 15.946 1.2383 17.0081 2.03664 17.8064C2.86428 18.6316 3.94826 19.0442 5.03225 19.0442C6.11623 19.0442 7.20022 18.6316 8.02541 17.8064L15.5742 10.2625C16.6851 9.14917 17.3003 7.66724 17.3003 6.09253C17.3028 4.51538 16.6875 3.03345 15.5742 1.92017Z" fill="#FFD300"/>
</svg>
