<svg width="17" height="19" viewBox="0 0 17 19" fill="none" xmlns="http://www.w3.org/2000/svg">
<path d="M15.0259 1.79907C12.7261 -0.500733 8.98098 -0.500733 6.68362 1.79907L0.311546 8.16626C0.270042 8.20777 0.248069 8.26392 0.248069 8.32251C0.248069 8.3811 0.270042 8.43726 0.311546 8.47876L1.21242 9.37964C1.2536 9.42064 1.30935 9.44366 1.36745 9.44366C1.42556 9.44366 1.4813 9.42064 1.52248 9.37964L7.89455 3.01245C8.68557 2.22144 9.73781 1.78687 10.856 1.78687C11.9741 1.78687 13.0264 2.22144 13.815 3.01245C14.606 3.80347 15.0405 4.85571 15.0405 5.97144C15.0405 7.0896 14.606 8.13941 13.815 8.93042L7.32082 15.4221L6.26858 16.4744C5.28469 17.4583 3.68557 17.4583 2.70168 16.4744C2.22561 15.9983 1.96438 15.366 1.96438 14.6921C1.96438 14.0183 2.22561 13.386 2.70168 12.9099L9.14455 6.46948C9.30813 6.30835 9.52297 6.21802 9.75246 6.21802H9.7549C9.9844 6.21802 10.1968 6.30835 10.3579 6.46948C10.5215 6.63306 10.6094 6.8479 10.6094 7.07739C10.6094 7.30444 10.5191 7.51929 10.3579 7.68042L5.09182 12.9417C5.05031 12.9832 5.02834 13.0393 5.02834 13.0979C5.02834 13.1565 5.05031 13.2126 5.09182 13.2542L5.9927 14.155C6.03388 14.196 6.08962 14.219 6.14773 14.219C6.20584 14.219 6.26158 14.196 6.30276 14.155L11.5664 8.89136C12.0523 8.40552 12.3184 7.76099 12.3184 7.07495C12.3184 6.38892 12.0498 5.74194 11.5664 5.25855C10.563 4.25513 8.93215 4.25757 7.92873 5.25855L7.30373 5.88599L1.4883 11.699C1.0936 12.0914 0.780732 12.5582 0.567833 13.0724C0.354935 13.5867 0.246246 14.138 0.248069 14.6946C0.248069 15.825 0.689964 16.887 1.4883 17.6853C2.31594 18.5105 3.39992 18.9231 4.48391 18.9231C5.56789 18.9231 6.65188 18.5105 7.47707 17.6853L15.0259 10.1414C16.1367 9.02808 16.752 7.54614 16.752 5.97144C16.7544 4.39429 16.1392 2.91235 15.0259 1.79907Z" fill="#6A64E6"/>
</svg>
