<svg width="19" height="18" viewBox="0 0 19 18" fill="none" xmlns="http://www.w3.org/2000/svg">
<path d="M17.1667 7.83327H4.13499L9.82833 2.13994C10.2833 1.68494 10.2833 0.938274 9.82833 0.483274C9.72039 0.37512 9.59219 0.289315 9.45105 0.23077C9.30992 0.172225 9.15862 0.14209 9.00583 0.14209C8.85303 0.14209 8.70173 0.172225 8.5606 0.23077C8.41946 0.289315 8.29126 0.37512 8.18333 0.483274L0.494993 8.17161C0.386839 8.27954 0.301034 8.40774 0.242489 8.54888C0.183944 8.69002 0.153809 8.84131 0.153809 8.99411C0.153809 9.1469 0.183944 9.2982 0.242489 9.43934C0.301034 9.58047 0.386839 9.70868 0.494993 9.81661L8.18333 17.5049C8.29134 17.613 8.41957 17.6986 8.56069 17.7571C8.70182 17.8155 8.85307 17.8456 9.00583 17.8456C9.15858 17.8456 9.30983 17.8155 9.45096 17.7571C9.59208 17.6986 9.72031 17.613 9.82833 17.5049C9.93634 17.3969 10.022 17.2687 10.0805 17.1276C10.1389 16.9865 10.169 16.8352 10.169 16.6824C10.169 16.5297 10.1389 16.3784 10.0805 16.2373C10.022 16.0962 9.93634 15.968 9.82833 15.8599L4.13499 10.1666H17.1667C17.8083 10.1666 18.3333 9.64161 18.3333 8.99994C18.3333 8.35828 17.8083 7.83327 17.1667 7.83327Z" fill="#333333"/>
</svg>
