<svg width="30" height="38" viewBox="0 0 30 38" fill="none" xmlns="http://www.w3.org/2000/svg">
<path d="M2.95652 7.14286L4.13044 12.1978L2.95652 17.2308L7.32609 19.956L10 24.3736L15 23.1868L20 24.3736L22.6739 19.956L27.0435 17.2308L25.8696 12.1978L27.0435 7.14286L22.6957 4.41758L20 0L15 1.20879L10.0217 0.021978L7.30435 4.41758L2.95652 7.14286ZM15.0217 21.0769C12.7155 21.0769 10.5037 20.1507 8.87299 18.502C7.24223 16.8534 6.32609 14.6173 6.32609 12.2857C6.32609 9.95414 7.24223 7.71806 8.87299 6.06939C10.5037 4.42072 12.7155 3.49451 15.0217 3.49451C19.8044 3.49451 23.6957 7.42857 23.6957 12.2637C23.6957 17.1429 19.8044 21.0769 15.0217 21.0769ZM14.9783 18.8791C11.3696 18.8791 8.47826 15.9341 8.47826 12.2857C8.47826 8.65934 11.3696 5.69231 14.9783 5.69231C18.587 5.69231 21.5217 8.65934 21.5217 12.2857C21.5217 15.9341 18.587 18.8791 14.9783 18.8791ZM23.3261 21.2967L20.5435 26.2198L16.0217 25.1868L21.5217 38L24.5652 33.1648H30L23.3261 21.2967ZM6.58696 21.4505L9.30435 26.3956L13.9348 25.2747L8.47826 38L5.43478 33.1648H0L6.58696 21.4505Z" fill="#FF7A00"/>
</svg>
