<svg width="37" height="40" viewBox="0 0 37 40" fill="none" xmlns="http://www.w3.org/2000/svg">
<path d="M18.5 40C19.773 40.0016 21.0149 39.6172 22.053 38.9003C23.0911 38.1834 23.8739 37.1697 24.2926 36H12.7074C13.1261 37.1697 13.9089 38.1834 14.947 38.9003C15.9851 39.6172 17.227 40.0016 18.5 40ZM32.8889 25.172V16C32.8889 9.566 28.3975 4.146 22.3131 2.516C21.7108 1.04 20.239 0 18.5 0C16.761 0 15.2892 1.04 14.6869 2.516C8.6025 4.148 4.11111 9.566 4.11111 16V25.172L0.60228 28.586C0.411026 28.7714 0.259351 28.9918 0.155987 29.2345C0.0526225 29.4771 -0.000389423 29.7373 2.15355e-06 30V32C2.15355e-06 32.5304 0.216569 33.0391 0.60206 33.4142C0.987552 33.7893 1.51039 34 2.05556 34H34.9444C35.4896 34 36.0125 33.7893 36.3979 33.4142C36.7834 33.0391 37 32.5304 37 32V30C37.0004 29.7373 36.9474 29.4771 36.844 29.2345C36.7407 28.9918 36.589 28.7714 36.3977 28.586L32.8889 25.172Z" fill="#FFD300"/>
</svg>
