<svg width="16" height="16" viewBox="0 0 16 16" fill="none" xmlns="http://www.w3.org/2000/svg">
<path d="M15 1.40625H11.7188V0.15625C11.7188 0.0703125 11.6484 0 11.5625 0H10.4688C10.3828 0 10.3125 0.0703125 10.3125 0.15625V1.40625H5.3125V0.15625C5.3125 0.0703125 5.24219 0 5.15625 0H4.0625C3.97656 0 3.90625 0.0703125 3.90625 0.15625V1.40625H0.625C0.279297 1.40625 0 1.68555 0 2.03125V15C0 15.3457 0.279297 15.625 0.625 15.625H15C15.3457 15.625 15.625 15.3457 15.625 15V2.03125C15.625 1.68555 15.3457 1.40625 15 1.40625ZM14.2188 14.2188H1.40625V6.79688H14.2188V14.2188ZM1.40625 5.46875V2.8125H3.90625V3.75C3.90625 3.83594 3.97656 3.90625 4.0625 3.90625H5.15625C5.24219 3.90625 5.3125 3.83594 5.3125 3.75V2.8125H10.3125V3.75C10.3125 3.83594 10.3828 3.90625 10.4688 3.90625H11.5625C11.6484 3.90625 11.7188 3.83594 11.7188 3.75V2.8125H14.2188V5.46875H1.40625Z" fill="#6A64E6"/>
</svg>
