<svg width="23" height="31" viewBox="0 0 23 31" fill="none" xmlns="http://www.w3.org/2000/svg">
<path fill-rule="evenodd" clip-rule="evenodd" d="M14.8637 1.728L11.5 0L8.13626 1.728L4.39161 2.292L2.69462 5.652L0 8.292L0.616719 12L0 15.708L2.69462 18.348L4.39161 21.708L8.13626 22.272L11.5 24L14.8637 22.272L18.6084 21.708L20.3054 18.348L23 15.708L22.3833 12L23 8.292L20.3054 5.652L18.6084 2.292L14.8637 1.728ZM4 31V23L8.036 23.582L12 25.5335L15.964 23.582L20 23V31L12 29.098L4 31Z" fill="white"/>
<path d="M13.6547 8.704H9.76667V10.756C9.93467 10.548 10.1747 10.38 10.4867 10.252C10.7987 10.116 11.1307 10.048 11.4827 10.048C12.1227 10.048 12.6467 10.188 13.0547 10.468C13.4627 10.748 13.7587 11.108 13.9427 11.548C14.1267 11.98 14.2187 12.444 14.2187 12.94C14.2187 13.86 13.9547 14.6 13.4267 15.16C12.9067 15.72 12.1627 16 11.1947 16C10.2827 16 9.55467 15.772 9.01067 15.316C8.46667 14.86 8.15867 14.264 8.08667 13.528H9.71867C9.79067 13.848 9.95067 14.104 10.1987 14.296C10.4547 14.488 10.7787 14.584 11.1707 14.584C11.6427 14.584 11.9987 14.436 12.2387 14.14C12.4787 13.844 12.5987 13.452 12.5987 12.964C12.5987 12.468 12.4747 12.092 12.2267 11.836C11.9867 11.572 11.6307 11.44 11.1587 11.44C10.8227 11.44 10.5427 11.524 10.3187 11.692C10.0947 11.86 9.93467 12.084 9.83867 12.364H8.23067V7.228H13.6547V8.704Z" fill="#632CAF"/>
</svg>
