<svg width="26" height="28" viewBox="0 0 26 28" fill="none" xmlns="http://www.w3.org/2000/svg">
<path d="M15.4286 8H2.57143C1.15329 8 0 9.21736 0 10.7143V24.2857C0 25.7826 1.15329 27 2.57143 27H15.4286C16.8467 27 18 25.7826 18 24.2857V10.7143C18 9.21736 16.8467 8 15.4286 8Z" fill="white"/>
<path d="M23.4286 0H10.5714C9.88944 0 9.23539 0.285968 8.75315 0.794996C8.27092 1.30402 8 1.99441 8 2.71429V5.42857H18.2857C18.9677 5.42857 19.6218 5.71454 20.104 6.22357C20.5862 6.73259 20.8571 7.42298 20.8571 8.14286V19H23.4286C24.1106 19 24.7646 18.714 25.2468 18.205C25.7291 17.696 26 17.0056 26 16.2857V2.71429C26 1.99441 25.7291 1.30402 25.2468 0.794996C24.7646 0.285968 24.1106 0 23.4286 0Z" fill="white"/>
<path d="M7.21869 20.104C7.98669 19.464 8.59869 18.932 9.05469 18.508C9.51069 18.076 9.89069 17.628 10.1947 17.164C10.4987 16.7 10.6507 16.244 10.6507 15.796C10.6507 15.388 10.5547 15.068 10.3627 14.836C10.1707 14.604 9.87469 14.488 9.47469 14.488C9.07469 14.488 8.76669 14.624 8.55069 14.896C8.33469 15.16 8.22269 15.524 8.21469 15.988H6.58269C6.61469 15.028 6.89869 14.3 7.43469 13.804C7.97869 13.308 8.66669 13.06 9.49869 13.06C10.4107 13.06 11.1107 13.304 11.5987 13.792C12.0867 14.272 12.3307 14.908 12.3307 15.7C12.3307 16.324 12.1627 16.92 11.8267 17.488C11.4907 18.056 11.1067 18.552 10.6747 18.976C10.2427 19.392 9.67869 19.896 8.98269 20.488H12.5227V21.88H6.59469V20.632L7.21869 20.104Z" fill="#632CAF"/>
</svg>
