<svg version="1.2" baseProfile="tiny-ps" xmlns="http://www.w3.org/2000/svg" viewBox="0 0 34 38" width="34" height="38">
	<title>darkblue-plan-svg</title>
	<style>
		tspan { white-space:pre }
		.shp0 { fill: #ff7a00 } 
	</style>
	<path id="Layer" fill-rule="evenodd" className="shp0" d="M32.65 17.74C32.78 17.95 32.84 18.19 32.84 18.44C32.84 18.68 32.78 18.92 32.65 19.13C32.52 19.34 32.34 19.51 32.12 19.62L2.9 34.23C2.71 34.33 2.51 34.38 2.3 34.38C2.09 34.39 1.88 34.34 1.7 34.26C1.51 34.17 1.34 34.04 1.21 33.88C1.08 33.71 0.99 33.52 0.95 33.32C0.91 33.12 0.92 32.91 0.97 32.7L4.96 18.44L1.02 4.13C0.97 3.89 0.98 3.64 1.05 3.4C1.13 3.17 1.27 2.96 1.46 2.8C1.66 2.64 1.9 2.54 2.16 2.51C2.41 2.48 2.67 2.53 2.9 2.64L32.12 17.25C32.34 17.37 32.52 17.54 32.65 17.74ZM28.55 18.44L4.36 6.33L7.29 17.11L19.57 17.11L19.57 19.77L7.29 19.77L4.36 30.54L28.55 18.44Z" />
</svg>