<svg width="16" height="17" viewBox="0 0 16 17" fill="none" xmlns="http://www.w3.org/2000/svg">
<path d="M15.4117 7.85446L0.974237 0.635714C0.86108 0.579123 0.733977 0.556449 0.608233 0.57042C0.482488 0.584392 0.363462 0.634414 0.265487 0.714464C0.171922 0.792881 0.102085 0.895843 0.063828 1.01177C0.0255707 1.12771 0.0204096 1.25201 0.048925 1.37071L1.99142 8.43853L0.022675 15.4866C-0.00408261 15.5858 -0.00720605 15.6898 0.0135559 15.7904C0.0343179 15.8909 0.0783861 15.9852 0.142217 16.0656C0.206048 16.1461 0.28786 16.2104 0.381075 16.2534C0.474291 16.2965 0.576308 16.3171 0.678925 16.3135C0.781656 16.3129 0.882807 16.2882 0.974237 16.2413L15.4117 9.02259C15.5192 8.96752 15.6094 8.88385 15.6724 8.7808C15.7354 8.67774 15.7688 8.55931 15.7688 8.43853C15.7688 8.31774 15.7354 8.19931 15.6724 8.09625C15.6094 7.9932 15.5192 7.90953 15.4117 7.85446ZM1.69611 14.417L3.14643 9.09478H9.21018V7.78228H3.14643L1.69611 2.46009L13.6464 8.43853L1.69611 14.417Z" fill="#632CAF"/>
</svg>
