<svg width="4" height="17" viewBox="0 0 4 17" fill="none" xmlns="http://www.w3.org/2000/svg">
<path fill-rule="evenodd" clip-rule="evenodd" d="M1.6875 3.375C2.61948 3.375 3.375 2.61948 3.375 1.6875C3.375 0.755519 2.61948 0 1.6875 0C0.755519 0 0 0.755519 0 1.6875C0 2.61948 0.755519 3.375 1.6875 3.375ZM1.6875 10.125C2.61948 10.125 3.375 9.36948 3.375 8.4375C3.375 7.50552 2.61948 6.75 1.6875 6.75C0.755519 6.75 0 7.50552 0 8.4375C0 9.36948 0.755519 10.125 1.6875 10.125ZM3.375 15.1875C3.375 16.1195 2.61948 16.875 1.6875 16.875C0.755519 16.875 0 16.1195 0 15.1875C0 14.2555 0.755519 13.5 1.6875 13.5C2.61948 13.5 3.375 14.2555 3.375 15.1875Z" fill="#632CAF"/>
</svg>
