<svg width="37" height="38" viewBox="0 0 37 38" fill="none" xmlns="http://www.w3.org/2000/svg">
<path fill-rule="evenodd" clip-rule="evenodd" d="M31.9384 0.648438C31.2737 0.648438 30.6156 0.779355 30.0015 1.03371C29.3874 1.28808 28.8294 1.6609 28.3594 2.13089L16.7802 13.7102C15.9986 14.4909 15.4653 15.4866 15.248 16.5697L14.1784 21.9236C14.0924 22.3545 14.2273 22.7999 14.5381 23.1105C14.8488 23.4212 15.2943 23.556 15.7251 23.4697L21.0789 22.3982C22.162 22.1815 23.1559 21.6502 23.9381 20.8681L35.5174 9.28882C35.9874 8.81882 36.3602 8.26085 36.6145 7.64677C36.8689 7.03269 36.9998 6.37453 36.9998 5.70985C36.9998 5.04518 36.8689 4.38702 36.6145 3.77293C36.3602 3.15885 35.9874 2.60089 35.5174 2.13089C35.0474 1.6609 34.4894 1.28807 33.8753 1.03371C33.2612 0.779355 32.6031 0.648438 31.9384 0.648438ZM31.0073 3.46208C31.3025 3.33981 31.6189 3.27688 31.9384 3.27688C32.2579 3.27688 32.5743 3.33981 32.8695 3.46208C33.1646 3.58434 33.4328 3.76356 33.6588 3.98948C33.8847 4.2154 34.0639 4.48361 34.1862 4.77879C34.3084 5.07397 34.3714 5.39035 34.3714 5.70985C34.3714 6.02936 34.3084 6.34573 34.1862 6.64091C34.0639 6.9361 33.8847 7.20431 33.6588 7.43023L31.3267 9.76232L27.8851 6.32238L30.218 3.98948C30.4439 3.76355 30.7122 3.58434 31.0073 3.46208ZM26.0265 8.18097L29.4681 11.6209L22.0795 19.0095C21.6647 19.4243 21.138 19.7058 20.5632 19.8208L17.1421 20.5055L17.8254 17.0852C17.9407 16.5108 18.2242 15.9828 18.6387 15.5688L26.0265 8.18097ZM3.4279 8.11765C3.93979 7.60577 4.63405 7.31819 5.35797 7.31819H11.4236C12.1494 7.31819 12.7378 6.7298 12.7378 6.00397C12.7378 5.27815 12.1494 4.68975 11.4236 4.68975H5.35797C3.93695 4.68975 2.57413 5.25425 1.56931 6.25907C0.564499 7.26388 0 8.6267 0 10.0477V32.2884C0 33.7094 0.564499 35.0722 1.56931 36.077C2.57413 37.0818 3.93695 37.6463 5.35797 37.6463H27.5986C29.0196 37.6463 30.3825 37.0818 31.3873 36.077C32.3921 35.0722 32.9566 33.7094 32.9566 32.2884V26.2227C32.9566 25.4969 32.3682 24.9085 31.6424 24.9085C30.9165 24.9085 30.3281 25.4969 30.3281 26.2227V32.2884C30.3281 33.0123 30.0406 33.7065 29.5287 34.2184C29.0168 34.7303 28.3225 35.0179 27.5986 35.0179H5.35797C4.63406 35.0179 3.93979 34.7303 3.4279 34.2184C2.91601 33.7065 2.62844 33.0123 2.62844 32.2884V10.0477C2.62844 9.32381 2.91601 8.62954 3.4279 8.11765Z" fill="#FF7A00"/>
</svg>
