<svg width="19" height="19" viewBox="0 0 19 19" fill="none" xmlns="http://www.w3.org/2000/svg">
<path fill-rule="evenodd" clip-rule="evenodd" d="M15.7965 0C15.4678 0 15.1422 0.0647503 14.8385 0.190554C14.5348 0.316359 14.2588 0.500753 14.0264 0.733207L8.29939 6.46021C7.91284 6.84634 7.6491 7.33879 7.54161 7.87449L7.01261 10.5225C6.97003 10.7356 7.03678 10.9559 7.19047 11.1095C7.34417 11.2632 7.56448 11.3298 7.77758 11.2872L10.4255 10.7572C10.9612 10.6501 11.4528 10.3873 11.8396 10.0004L17.5666 4.27345C17.7991 4.04099 17.9835 3.76503 18.1093 3.46131C18.2351 3.15759 18.2998 2.83207 18.2998 2.50333C18.2998 2.17459 18.2351 1.84906 18.1093 1.54534C17.9835 1.24163 17.7991 0.965663 17.5666 0.733207C17.3342 0.500752 17.0582 0.316358 16.7545 0.190554C16.4508 0.0647504 16.1253 0 15.7965 0ZM15.336 1.3916C15.482 1.33113 15.6385 1.3 15.7965 1.3C15.9545 1.3 16.111 1.33113 16.257 1.3916C16.403 1.45207 16.5357 1.54071 16.6474 1.65245C16.7591 1.76419 16.8478 1.89684 16.9082 2.04283C16.9687 2.18883 16.9998 2.3453 16.9998 2.50333C16.9998 2.66135 16.9687 2.81783 16.9082 2.96382C16.8478 3.10981 16.7591 3.24247 16.6474 3.35421L15.494 4.50764L13.7918 2.80628L14.9456 1.65245C15.0574 1.54071 15.19 1.45207 15.336 1.3916ZM12.8726 3.72552L14.5747 5.42688L10.9204 9.08121C10.7152 9.28637 10.4547 9.42561 10.1704 9.48247L8.4784 9.82113L8.81635 8.12948C8.87341 7.84539 9.01359 7.5842 9.21863 7.37945L12.8726 3.72552ZM1.69541 3.69541C1.94858 3.44223 2.29196 3.3 2.65 3.3H5.65C6.00899 3.3 6.3 3.00899 6.3 2.65C6.3 2.29101 6.00899 2 5.65 2H2.65C1.94718 2 1.27314 2.2792 0.776167 2.77617C0.279195 3.27314 0 3.94718 0 4.65V15.65C0 16.3528 0.279196 17.0269 0.776167 17.5238C1.27314 18.0208 1.94718 18.3 2.65 18.3H13.65C14.3528 18.3 15.0269 18.0208 15.5238 17.5238C16.0208 17.0269 16.3 16.3528 16.3 15.65V12.65C16.3 12.291 16.009 12 15.65 12C15.291 12 15 12.291 15 12.65V15.65C15 16.008 14.8578 16.3514 14.6046 16.6046C14.3514 16.8578 14.008 17 13.65 17H2.65C2.29196 17 1.94858 16.8578 1.69541 16.6046C1.44223 16.3514 1.3 16.008 1.3 15.65V4.65C1.3 4.29196 1.44223 3.94858 1.69541 3.69541Z" fill="#632CAF"/>
</svg>
