<svg xmlns="http://www.w3.org/2000/svg" width="29" height="18.999" viewBox="0 0 29 18.999">
  <g id="flag2" transform="translate(0 -5)">
    <path id="Path_2" data-name="Path 2" d="M26.828,5H2.172A2.172,2.172,0,0,0,0,7.172v4.161H29V7.172A2.172,2.172,0,0,0,26.828,5Z" fill="#fab446"/>
    <path id="Path_3" data-name="Path 3" d="M0,21.827A2.172,2.172,0,0,0,2.172,24H26.828A2.172,2.172,0,0,0,29,21.827V17.666H0Z" fill="#73af00"/>
    <path id="Path_4" data-name="Path 4" d="M29,11.334H0v6.333H29Z" fill="#f5f5f5"/>
    <path id="Path_5" data-name="Path 5" d="M14.5,17.188A2.688,2.688,0,1,1,17.187,14.5,2.691,2.691,0,0,1,14.5,17.188Zm0-4.875A2.188,2.188,0,1,0,16.687,14.5,2.19,2.19,0,0,0,14.5,12.313Z" fill="#41479b"/>
    <path id="Path_6" data-name="Path 6" d="M14.5,14.8a.3.3,0,1,0-.3-.3A.3.3,0,0,0,14.5,14.8Z" fill="#41479b"/>
    <path id="Path_7" data-name="Path 7" d="M14.5,14.545l-.774.078-1.663-.078v-.091l1.663-.078.774.078Z" fill="#41479b"/>
    <path id="Path_8" data-name="Path 8" d="M14.5,14.545l.774.078,1.663-.078v-.091l-1.663-.078-.774.078Z" fill="#41479b"/>
    <path id="Path_9" data-name="Path 9" d="M14.453,14.5l-.078-.774.078-1.663h.091l.078,1.663-.078.774Z" fill="#41479b"/>
    <path id="Path_10" data-name="Path 10" d="M14.453,14.5l-.078.774.078,1.663h.091l.078-1.663-.078-.774Z" fill="#41479b"/>
    <path id="Path_11" data-name="Path 11" d="M14.468,14.532l-.6-.492-1.121-1.231.065-.065,1.231,1.121.492.6Z" fill="#41479b"/>
    <path id="Path_12" data-name="Path 12" d="M14.466,14.531l.492.6,1.231,1.121.065-.065-1.121-1.231-.6-.492Z" fill="#41479b"/>
    <path id="Path_13" data-name="Path 13" d="M14.466,14.468l.492-.6,1.231-1.121.065.065L15.133,14.04l-.6.492Z" fill="#41479b"/>
    <path id="Path_14" data-name="Path 14" d="M14.468,14.467l-.6.492L12.744,16.19l.065.065,1.231-1.121.492-.6Z" fill="#41479b"/>
    <path id="Path_15" data-name="Path 15" d="M14.516,14.543l-.685.368-1.567.564-.035-.084,1.507-.709.745-.224Z" fill="#41479b"/>
    <path id="Path_16" data-name="Path 16" d="M14.516,14.543l.745-.224,1.507-.709-.035-.084-1.567.564-.686.369Z" fill="#41479b"/>
    <path id="Path_17" data-name="Path 17" d="M14.457,14.517l-.368-.686-.564-1.566.085-.035.709,1.507.224.745Z" fill="#41479b"/>
    <path id="Path_18" data-name="Path 18" d="M14.457,14.517l.224.745.709,1.507.085-.035-.564-1.566-.368-.686Z" fill="#41479b"/>
    <path id="Path_19" data-name="Path 19" d="M14.481,14.543l-.745-.224-1.507-.709.035-.084,1.567.564.685.369Z" fill="#41479b"/>
    <path id="Path_20" data-name="Path 20" d="M14.481,14.543l.686.368,1.567.564.035-.084-1.507-.709-.745-.224Z" fill="#41479b"/>
    <path id="Path_21" data-name="Path 21" d="M14.457,14.482l.224-.745.709-1.507.085.035-.564,1.566-.368.686Z" fill="#41479b"/>
    <path id="Path_22" data-name="Path 22" d="M14.457,14.482l-.368.686-.564,1.566.085.035.709-1.507.224-.745Z" fill="#41479b"/>
    <path id="Path_23" data-name="Path 23" d="M14.5,14.912a.411.411,0,1,0-.411-.411A.411.411,0,0,0,14.5,14.912Z" fill="#f5f5f5"/>
    <path id="Path_24" data-name="Path 24" d="M14.5,14.747a.246.246,0,1,0-.246-.247A.246.246,0,0,0,14.5,14.747Z" fill="#41479b"/>
  </g>
</svg>
