<svg width="55" height="29" viewBox="0 0 55 29" fill="none" xmlns="http://www.w3.org/2000/svg">
<path d="M49.5 19L44.7369 13L54.2631 13L49.5 19Z" fill="#6A64E6"/>
<path d="M26.8281 5H2.17188C0.97235 5 0 5.97235 0 7.17189V11.3333H29V7.17189C29 5.97235 28.0277 5 26.8281 5Z" fill="#FAB446"/>
<path d="M0 21.8275C0 23.0269 0.97235 23.9993 2.17188 23.9993H26.8281C28.0276 23.9993 29 23.027 29 21.8275V17.666H0V21.8275Z" fill="#73AF00"/>
<path d="M29 11.334H0V17.667H29V11.334Z" fill="#F5F5F5"/>
<path d="M14.499 17.1875C13.0171 17.1875 11.8115 15.9819 11.8115 14.5C11.8115 13.018 13.0171 11.8125 14.499 11.8125C15.981 11.8125 17.1865 13.018 17.1865 14.5C17.1865 15.9819 15.981 17.1875 14.499 17.1875ZM14.499 12.3125C13.2927 12.3125 12.3115 13.2937 12.3115 14.5C12.3115 15.7063 13.2927 16.6875 14.499 16.6875C15.7053 16.6875 16.6865 15.7063 16.6865 14.5C16.6865 13.2937 15.7053 12.3125 14.499 12.3125Z" fill="#41479B"/>
<path d="M14.5 14.8047C14.6682 14.8047 14.8047 14.6682 14.8047 14.5C14.8047 14.3317 14.6682 14.1953 14.5 14.1953C14.3317 14.1953 14.1953 14.3317 14.1953 14.5C14.1953 14.6682 14.3317 14.8047 14.5 14.8047Z" fill="#41479B"/>
<path d="M14.499 14.5446L13.7247 14.6227L12.0615 14.5446V14.4532L13.7247 14.375L14.499 14.4532V14.5446Z" fill="#41479B"/>
<path d="M14.5 14.5446L15.2743 14.6227L16.9375 14.5446V14.4532L15.2743 14.375L14.5 14.4532V14.5446Z" fill="#41479B"/>
<path d="M14.4532 14.5L14.375 13.7257L14.4532 12.0625H14.5446L14.6227 13.7257L14.5446 14.5H14.4532Z" fill="#41479B"/>
<path d="M14.4532 14.5L14.375 15.2743L14.4532 16.9375H14.5446L14.6227 15.2743L14.5446 14.5H14.4532Z" fill="#41479B"/>
<path d="M14.4677 14.5323L13.8649 14.0401L12.7441 12.8088L12.8088 12.7441L14.0401 13.8649L14.5323 14.4677L14.4677 14.5323Z" fill="#41479B"/>
<path d="M14.4658 14.5314L14.958 15.1341L16.1893 16.2549L16.254 16.1903L15.1332 14.9589L14.5304 14.4668L14.4658 14.5314Z" fill="#41479B"/>
<path d="M14.4658 14.4677L14.958 13.8649L16.1893 12.7441L16.254 12.8088L15.1332 14.0401L14.5304 14.5323L14.4658 14.4677Z" fill="#41479B"/>
<path d="M14.4677 14.4668L13.8649 14.9589L12.7441 16.1903L12.8088 16.2549L14.0401 15.1341L14.5323 14.5314L14.4677 14.4668Z" fill="#41479B"/>
<path d="M14.5164 14.5435L13.831 14.912L12.2645 15.4762L12.2295 15.3918L13.7362 14.6831L14.4814 14.459L14.5164 14.5435Z" fill="#41479B"/>
<path d="M14.5164 14.5427L15.2617 14.3185L16.7684 13.6098L16.7334 13.5254L15.1669 14.0896L14.4814 14.4581L14.5164 14.5427Z" fill="#41479B"/>
<path d="M14.4572 14.5174L14.0887 13.8319L13.5244 12.2655L13.6089 12.2305L14.3175 13.7372L14.5417 14.4824L14.4572 14.5174Z" fill="#41479B"/>
<path d="M14.457 14.5174L14.6812 15.2626L15.3898 16.7694L15.4743 16.7343L14.91 15.1679L14.5415 14.4824L14.457 14.5174Z" fill="#41479B"/>
<path d="M14.4814 14.5427L13.7362 14.3185L12.2295 13.6098L12.2645 13.5254L13.831 14.0896L14.5164 14.4581L14.4814 14.5427Z" fill="#41479B"/>
<path d="M14.4814 14.5435L15.1669 14.912L16.7334 15.4762L16.7684 15.3918L15.2617 14.6831L14.5164 14.459L14.4814 14.5435Z" fill="#41479B"/>
<path d="M14.457 14.4824L14.6812 13.7372L15.3898 12.2305L15.4743 12.2655L14.91 13.8319L14.5415 14.5174L14.457 14.4824Z" fill="#41479B"/>
<path d="M14.4572 14.4824L14.0887 15.1679L13.5244 16.7343L13.6089 16.7694L14.3175 15.2626L14.5417 14.5174L14.4572 14.4824Z" fill="#41479B"/>
<path d="M14.4998 14.9118C14.7268 14.9118 14.9108 14.7278 14.9108 14.5008C14.9108 14.2738 14.7268 14.0898 14.4998 14.0898C14.2729 14.0898 14.0889 14.2738 14.0889 14.5008C14.0889 14.7278 14.2729 14.9118 14.4998 14.9118Z" fill="#F5F5F5"/>
<path d="M14.5003 14.7468C14.6365 14.7468 14.7468 14.6365 14.7468 14.5003C14.7468 14.3642 14.6365 14.2539 14.5003 14.2539C14.3642 14.2539 14.2539 14.3642 14.2539 14.5003C14.2539 14.6365 14.3642 14.7468 14.5003 14.7468Z" fill="#41479B"/>
</svg>
