<svg width="22" height="25" viewBox="0 0 22 25" fill="none" xmlns="http://www.w3.org/2000/svg">
<path d="M10.0833 13.7504V25H5.19444C4.6728 25 4.15627 24.8949 3.67434 24.6908C3.19241 24.4866 2.75451 24.1874 2.38566 23.8102C2.0168 23.4329 1.72421 22.9851 1.52459 22.4922C1.32497 21.9994 1.22222 21.4711 1.22222 20.9376V13.7504H10.0833ZM20.7778 13.7504V20.9376C20.7778 21.4711 20.675 21.9994 20.4754 22.4922C20.2758 22.9851 19.9832 23.4329 19.6143 23.8102C19.2455 24.1874 18.8076 24.4866 18.3257 24.6908C17.8437 24.8949 17.3272 25 16.8056 25H11.9167V13.7504H20.7778ZM14.0556 0.000812711C14.7683 0.000663269 15.468 0.196645 16.0812 0.568205C16.6944 0.939766 17.1985 1.47322 17.5407 2.11262C17.883 2.75202 18.0507 3.47381 18.0263 4.20231C18.0019 4.93081 17.7862 5.63917 17.402 6.25311L20.4722 6.25061C21.3156 6.25061 22 6.83309 22 7.55307V11.1979C22 11.9179 21.3156 12.5004 20.4722 12.5004L11.9167 12.4992V6.25061H10.0833V12.4992L1.52778 12.5004C0.684444 12.5004 0 11.9179 0 11.1979V7.55307C0 6.83309 0.684444 6.25061 1.52778 6.25061L4.598 6.25311C4.05268 5.38221 3.85266 4.3314 4.03873 3.31489C4.22479 2.29839 4.78293 1.39273 5.59936 0.782529C6.41579 0.172333 7.42904 -0.0964537 8.43254 0.0309648C9.43605 0.158383 10.3543 0.672413 11 1.46826C11.3721 1.00852 11.839 0.638573 12.3672 0.384887C12.8955 0.1312 13.472 4.78166e-05 14.0556 0.000812711ZM7.94444 1.87575C7.39259 1.87601 6.86219 2.09439 6.4641 2.48525C6.06602 2.87611 5.83106 3.40921 5.80833 3.97311C5.78561 4.537 5.97688 5.08806 6.34216 5.5111C6.70745 5.93414 7.21848 6.19642 7.76844 6.24311L7.94444 6.25061H10.0833V4.06318L10.076 3.88319C10.0318 3.33608 9.78812 2.82596 9.39326 2.45408C8.99839 2.08221 8.48123 1.87577 7.94444 1.87575ZM14.0556 1.87575C13.4883 1.87575 12.9443 2.10621 12.5431 2.51643C12.142 2.92666 11.9167 3.48304 11.9167 4.06318V6.25061H14.0556C14.6228 6.25061 15.1669 6.02015 15.568 5.60993C15.9691 5.1997 16.1944 4.64332 16.1944 4.06318C16.1944 3.48304 15.9691 2.92666 15.568 2.51643C15.1669 2.10621 14.6228 1.87575 14.0556 1.87575Z" fill="white"/>
</svg>
