<svg width="20" height="20" viewBox="0 0 20 20" fill="none" xmlns="http://www.w3.org/2000/svg">
<path d="M16.2222 8.88951V6.85247H15.2036V8.88951H13.1666V9.90802H15.2036V11.9451H16.2222V9.90802H18.2592V8.88951H16.2222ZM7.05548 8.88951V10.9265H9.93667C9.7253 11.5219 9.33493 12.0372 8.8191 12.4019C8.30326 12.7666 7.68722 12.9628 7.05548 12.9636C6.24543 12.9625 5.46886 12.6402 4.89607 12.0674C4.32328 11.4946 4.00101 10.7181 3.99993 9.90802C4.00101 9.09797 4.32328 8.3214 4.89607 7.74861C5.46886 7.17582 6.24543 6.85355 7.05548 6.85247C7.78556 6.85247 8.48874 7.11402 9.03467 7.58988L10.3718 6.05395C9.45214 5.25425 8.27419 4.81433 7.05548 4.81543C5.70531 4.81694 4.41086 5.35397 3.45614 6.30868C2.50142 7.2634 1.9644 8.55785 1.96289 9.90802C1.9644 11.2582 2.50142 12.5526 3.45614 13.5074C4.41086 14.4621 5.70531 14.9991 7.05548 15.0006C8.40566 14.9991 9.7001 14.4621 10.6548 13.5074C11.6095 12.5526 12.1466 11.2582 12.1481 9.90802V8.88951H7.05548Z" fill="white"/>
</svg>
