<svg width="19" height="18" viewBox="0 0 19 18" fill="none" xmlns="http://www.w3.org/2000/svg">
<path d="M16.6749 0.75H7.34155V3.66667H9.67489V4.83333H2.09155C1.09989 4.83333 0.341553 5.59167 0.341553 6.58333V13C0.341553 13.9917 1.09989 14.75 2.09155 14.75H2.67489V17.725L6.34989 14.75H10.2582V10.6667H16.6749C17.6666 10.6667 18.4249 9.90833 18.4249 8.91667V2.5C18.4249 1.50833 17.6666 0.75 16.6749 0.75ZM6.64155 12.3583L6.34989 11.425H4.54155L4.19155 12.3583H2.79155L4.71655 7.16667H6.11655L8.04155 12.3583H6.64155ZM15.5082 7.75V8.91667C14.7499 8.91667 13.9332 8.68333 13.2332 8.33333C12.5332 8.68333 11.7166 8.85833 10.8999 8.91667L10.8416 7.75C11.2499 7.75 11.6582 7.69167 12.0666 7.575C11.5416 7.05 11.1916 6.40833 11.0166 5.70833H12.2416C12.4166 6.23333 12.7666 6.64167 13.1749 6.99167C13.8166 6.46667 14.2249 5.70833 14.2832 4.83333H10.7832V3.66667H12.5332V2.5H13.6999V3.66667H15.6249L15.6832 4.25C15.7416 5.475 15.2749 6.7 14.3999 7.575C14.8082 7.69167 15.1582 7.75 15.5082 7.75Z" fill="#333333"/>
</svg>
