<svg width="20" height="21" viewBox="0 0 20 21" fill="none" xmlns="http://www.w3.org/2000/svg">
<path d="M6.62999 15.9997H4.18555V7.85156H6.62999V15.9997ZM15.593 15.9997H13.1485V11.647C13.1485 10.5127 12.7444 9.94808 11.9434 9.94808C11.3087 9.94808 10.9061 10.2642 10.7041 10.8973V15.9997H8.25962C8.25962 15.9997 8.29221 8.66638 8.25962 7.85156H10.1891L10.3382 9.48119H10.3887C10.8898 8.66638 11.6908 8.11393 12.7892 8.11393C13.6244 8.11393 14.2998 8.34616 14.8156 8.92956C15.3347 9.51378 15.593 10.2976 15.593 11.3985V15.9997Z" fill="white"/>
<path d="M5.40749 7.03722C6.10501 7.03722 6.67046 6.49001 6.67046 5.815C6.67046 5.13998 6.10501 4.59277 5.40749 4.59277C4.70998 4.59277 4.14453 5.13998 4.14453 5.815C4.14453 6.49001 4.70998 7.03722 5.40749 7.03722Z" fill="white"/>
</svg>
