<svg width="21" height="21" viewBox="0 0 21 21" fill="none" xmlns="http://www.w3.org/2000/svg">
<path d="M20.5032 9.15067C20.2903 8.71104 19.9354 8.35608 19.4958 8.1432L3.11719 0.217688C2.03824 -0.305038 0.739888 0.145908 0.217162 1.22485C-0.0491402 1.77459 -0.0715264 2.41111 0.155558 2.97818L3.00361 10.0969L0.155558 17.2163C-0.288053 18.3332 0.257695 19.5981 1.3745 20.0417C1.62703 20.142 1.89613 20.1941 2.16786 20.1954C2.49661 20.1954 2.82113 20.1212 3.11719 19.9783L19.4957 12.0506C20.5748 11.528 21.0258 10.2297 20.5032 9.15067ZM2.48694 18.6737C2.12724 18.8478 1.69448 18.6974 1.52035 18.3377C1.43161 18.1544 1.42424 17.9422 1.49996 17.7532L4.27275 10.8205H18.7164L2.48694 18.6737ZM4.27279 9.3733L1.5 2.44053C1.38459 2.16418 1.45625 1.84505 1.67871 1.6446C1.89405 1.43477 2.2192 1.38554 2.48694 1.52232L18.7164 9.3733H4.27279Z" fill="#6A64E6"/>
</svg>
