<svg width="22" height="21" viewBox="0 0 22 21" fill="none" xmlns="http://www.w3.org/2000/svg">
<path d="M21.2996 9.34598C21.0867 8.90635 20.7318 8.5514 20.2922 8.33852L3.91358 0.413001C2.83463 -0.109725 1.53627 0.341221 1.01355 1.42017C0.747247 1.9699 0.72486 2.60642 0.951944 3.1735L3.79999 10.2922L0.951944 17.4117C0.508333 18.5285 1.05408 19.7935 2.17089 20.237C2.42341 20.3373 2.69251 20.3894 2.96424 20.3907C3.293 20.3907 3.61751 20.3165 3.91358 20.1736L20.2921 12.2459C21.3712 11.7233 21.8222 10.425 21.2996 9.34598ZM3.28333 18.869C2.92362 19.0431 2.49087 18.8927 2.31674 18.533C2.228 18.3497 2.22062 18.1376 2.29635 17.9485L5.06914 11.0158H19.5128L3.28333 18.869ZM5.06918 9.56861L2.29639 2.63585C2.18098 2.3595 2.25263 2.04037 2.4751 1.83991C2.69044 1.63008 3.01559 1.58086 3.28333 1.71763L19.5128 9.56861H5.06918Z" fill="#FFD300"/>
</svg>
