<svg width="21" height="16" viewBox="0 0 21 16" fill="none" xmlns="http://www.w3.org/2000/svg">
<path d="M11.9969 4.05379V0.999787C11.9969 0.802037 12.0556 0.608738 12.1655 0.444328C12.2754 0.279918 12.4315 0.151779 12.6142 0.076109C12.7969 0.000438951 12.9979 -0.0193641 13.1919 0.0192035C13.3859 0.057771 13.564 0.152977 13.7039 0.292787L20.7039 7.29279C20.7968 7.38557 20.8706 7.49578 20.9209 7.61709C20.9712 7.73841 20.9971 7.86845 20.9971 7.99979C20.9971 8.13112 20.9712 8.26117 20.9209 8.38248C20.8706 8.5038 20.7968 8.614 20.7039 8.70679L13.7039 15.7068C13.5642 15.8471 13.386 15.9427 13.1919 15.9816C12.9978 16.0204 12.7965 16.0007 12.6136 15.925C12.4307 15.8492 12.2744 15.7208 12.1646 15.5561C12.0548 15.3914 11.9964 15.1978 11.9969 14.9998V11.9038C11.7129 11.8838 11.4319 11.8748 11.1539 11.8748C5.72787 11.8748 2.91487 15.4468 2.79187 15.6048C2.6658 15.7715 2.49048 15.8944 2.29073 15.9559C2.09097 16.0175 1.87692 16.0146 1.67887 15.9478C1.4802 15.8812 1.30748 15.7538 1.18511 15.5837C1.06273 15.4136 0.996887 15.2093 0.996868 14.9998C0.996868 5.87579 9.08287 4.31879 11.9969 4.05379ZM11.1539 9.87479C11.8009 9.87479 12.4659 9.91979 13.1289 10.0078C13.3691 10.04 13.5896 10.1583 13.7492 10.3407C13.9088 10.5232 13.9968 10.7574 13.9969 10.9998V12.5858L18.5829 7.99979L13.9969 3.41379V4.99979C13.9969 5.55179 13.5259 5.99979 12.9749 5.99979C12.0649 5.99979 4.86087 6.20079 3.29587 12.4248C4.94987 11.2068 7.57687 9.87479 11.1539 9.87479Z" fill="#828282"/>
</svg>
