<svg width="834" height="304" viewBox="0 0 834 304" fill="none" xmlns="http://www.w3.org/2000/svg">
<path d="M833.092 284.156C834.113 294.773 825.731 303.944 815.065 303.879L18.8445 299.028C8.21166 298.963 -0.0481641 289.744 1.05054 279.168L27.022 29.1661C27.9627 20.1115 35.5156 13.1845 44.6176 13.0287L789.142 0.284727C798.533 0.123986 806.469 7.21058 807.367 16.5596L833.092 284.156Z" fill="#E73FB5"/>
<path d="M833.092 284.156C834.113 294.773 825.731 303.944 815.065 303.879L18.8445 299.028C8.21166 298.963 -0.0481641 289.744 1.05054 279.168L27.022 29.1661C27.9627 20.1115 35.5156 13.1845 44.6176 13.0287L789.142 0.284727C798.533 0.123986 806.469 7.21058 807.367 16.5596L833.092 284.156Z" fill="url(#paint0_radial)" fill-opacity="0.7"/>
<path d="M833.092 284.156C834.113 294.773 825.731 303.944 815.065 303.879L18.8445 299.028C8.21166 298.963 -0.0481641 289.744 1.05054 279.168L27.022 29.1661C27.9627 20.1115 35.5156 13.1845 44.6176 13.0287L789.142 0.284727C798.533 0.123986 806.469 7.21058 807.367 16.5596L833.092 284.156Z" fill="white"/>
<defs>
<radialGradient id="paint0_radial" cx="0" cy="0" r="1" gradientUnits="userSpaceOnUse" gradientTransform="translate(804.626 353.012) rotate(-157.964) scale(940.893 661.063)">
<stop stop-color="white" stop-opacity="0.59"/>
<stop offset="0.697917" stop-color="white" stop-opacity="0"/>
<stop offset="1" stop-color="white" stop-opacity="0"/>
</radialGradient>
</defs>
</svg>
