<svg width="21" height="21" viewBox="0 0 21 21" fill="none" xmlns="http://www.w3.org/2000/svg">
<path d="M20.5736 9.76004C20.3606 9.32042 20.0057 8.96546 19.5661 8.75258L3.1875 0.827063C2.10856 0.304337 0.810201 0.755283 0.287475 1.83423C0.0211723 2.38396 -0.0012139 3.02049 0.22587 3.58756L3.07392 10.7063L0.22587 17.8257C-0.217741 18.9425 0.328007 20.2075 1.44482 20.6511C1.69734 20.7514 1.96644 20.8035 2.23817 20.8047C2.56692 20.8047 2.89144 20.7305 3.1875 20.5877L19.566 12.66C20.6451 12.1374 21.0962 10.839 20.5736 9.76004ZM2.55726 19.283C2.19755 19.4572 1.76479 19.3067 1.59066 18.947C1.50193 18.7638 1.49455 18.5516 1.57027 18.3626L4.34306 11.4298H18.7867L2.55726 19.283ZM4.34311 9.98267L1.57031 3.04991C1.45491 2.77356 1.52656 2.45443 1.74902 2.25397C1.96436 2.04414 2.28951 1.99492 2.55726 2.13169L18.7867 9.98267H4.34311Z" fill="#FF7A00"/>
</svg>
